<svg width="28" height="28" viewBox="0 0 28 28" fill="none" xmlns="http://www.w3.org/2000/svg">
<path d="M21.6104 14.1159L15.9655 12.0378L13.8874 6.38859C13.7644 6.05427 13.5417 5.76573 13.2495 5.56192C12.9573 5.35811 12.6096 5.24883 12.2534 5.24883C11.8971 5.24883 11.5494 5.35811 11.2572 5.56192C10.965 5.76573 10.7424 6.05427 10.6193 6.38859L8.53898 12.0312L2.88976 14.1094C2.55543 14.2324 2.2669 14.4551 2.06309 14.7473C1.85928 15.0395 1.75 15.3872 1.75 15.7434C1.75 16.0997 1.85928 16.4474 2.06309 16.7396C2.2669 17.0318 2.55543 17.2544 2.88976 17.3775L8.53132 19.4688L10.6094 25.1147C10.7325 25.449 10.9552 25.7375 11.2474 25.9414C11.5396 26.1452 11.8873 26.2544 12.2435 26.2544C12.5998 26.2544 12.9475 26.1452 13.2397 25.9414C13.5319 25.7375 13.7545 25.449 13.8776 25.1147L15.9557 19.4698L21.6049 17.3917C21.9392 17.2687 22.2278 17.046 22.4316 16.7538C22.6354 16.4616 22.7447 16.1139 22.7447 15.7577C22.7447 15.4014 22.6354 15.0537 22.4316 14.7615C22.2278 14.4693 21.9392 14.2467 21.6049 14.1236L21.6104 14.1159ZM15.3552 17.8281C15.1188 17.9149 14.904 18.0521 14.7259 18.2302C14.5478 18.4083 14.4106 18.6231 14.3238 18.8595L12.2457 24.488L10.1719 18.8552C10.0851 18.6199 9.94831 18.4063 9.77102 18.2291C9.59372 18.0518 9.38012 17.915 9.14492 17.8281L3.51648 15.75L9.14492 13.6719C9.38012 13.585 9.59372 13.4482 9.77102 13.2709C9.94831 13.0937 10.0851 12.8801 10.1719 12.6448L12.2501 7.01641L14.3282 12.6448C14.415 12.8813 14.5522 13.096 14.7303 13.2741C14.9084 13.4523 15.1231 13.5895 15.3596 13.6763L20.988 15.7544L15.3552 17.8281ZM15.7501 4.375C15.7501 4.14294 15.8423 3.92038 16.0064 3.75628C16.1704 3.59219 16.393 3.5 16.6251 3.5H18.3751V1.75C18.3751 1.51794 18.4673 1.29538 18.6314 1.13128C18.7954 0.967187 19.018 0.875 19.2501 0.875C19.4821 0.875 19.7047 0.967187 19.8688 1.13128C20.0329 1.29538 20.1251 1.51794 20.1251 1.75V3.5H21.8751C22.1071 3.5 22.3297 3.59219 22.4938 3.75628C22.6579 3.92038 22.7501 4.14294 22.7501 4.375C22.7501 4.60706 22.6579 4.82962 22.4938 4.99372C22.3297 5.15781 22.1071 5.25 21.8751 5.25H20.1251V7C20.1251 7.23206 20.0329 7.45462 19.8688 7.61872C19.7047 7.78281 19.4821 7.875 19.2501 7.875C19.018 7.875 18.7954 7.78281 18.6314 7.61872C18.4673 7.45462 18.3751 7.23206 18.3751 7V5.25H16.6251C16.393 5.25 16.1704 5.15781 16.0064 4.99372C15.8423 4.82962 15.7501 4.60706 15.7501 4.375ZM27.1251 9.625C27.1251 9.85706 27.0329 10.0796 26.8688 10.2437C26.7047 10.4078 26.4821 10.5 26.2501 10.5H25.3751V11.375C25.3751 11.6071 25.2829 11.8296 25.1188 11.9937C24.9547 12.1578 24.7321 12.25 24.5001 12.25C24.268 12.25 24.0454 12.1578 23.8814 11.9937C23.7173 11.8296 23.6251 11.6071 23.6251 11.375V10.5H22.7501C22.518 10.5 22.2954 10.4078 22.1314 10.2437C21.9673 10.0796 21.8751 9.85706 21.8751 9.625C21.8751 9.39294 21.9673 9.17038 22.1314 9.00628C22.2954 8.84219 22.518 8.75 22.7501 8.75H23.6251V7.875C23.6251 7.64294 23.7173 7.42038 23.8814 7.25628C24.0454 7.09219 24.268 7 24.5001 7C24.7321 7 24.9547 7.09219 25.1188 7.25628C25.2829 7.42038 25.3751 7.64294 25.3751 7.875V8.75H26.2501C26.4821 8.75 26.7047 8.84219 26.8688 9.00628C27.0329 9.17038 27.1251 9.39294 27.1251 9.625Z" fill="white"/>
</svg>
