<svg width="32" height="28" viewBox="0 0 32 28" fill="none" xmlns="http://www.w3.org/2000/svg">
<path d="M22.3856 15.7848C21.5939 15.7866 20.827 15.5087 20.2203 15.0001C19.6136 14.4915 19.206 13.7849 19.0696 13.005C18.9332 12.2252 19.0766 11.4222 19.4746 10.7378C19.8726 10.0534 20.4996 9.5316 21.2449 9.26452C20.1203 8.67382 18.8622 8.38348 17.5925 8.42161C16.3228 8.45973 15.0844 8.82503 13.9972 9.48214C12.9101 10.1392 12.011 11.0659 11.387 12.1724C10.763 13.2789 10.4352 14.5277 10.4355 15.798C10.4355 17.7549 11.2128 19.6317 12.5966 21.0154C13.9803 22.3991 15.857 23.1765 17.8139 23.1765C18.8975 23.1767 19.9678 22.9382 20.9488 22.478C21.9298 22.0178 22.7974 21.3472 23.49 20.5138C24.1825 19.6805 24.683 18.7048 24.9559 17.6561C25.2288 16.6074 25.2673 15.5116 25.0688 14.4463C24.7559 14.8623 24.3505 15.1999 23.8847 15.4322C23.4188 15.6645 22.9062 15.7852 22.3856 15.7848ZM16.0004 3.5C10.2015 3.5 5.5 8.20149 5.5 13.9996C5.5 19.7994 10.2015 24.5 15.9996 24.5C16.2406 24.5 16.4781 24.4912 16.7138 24.4762C11.879 24.1848 8.04631 20.1737 8.04631 15.2648C8.04631 10.1677 12.1783 6.03572 17.2762 6.03572C22.1561 6.03572 26.1504 9.8234 26.4823 14.6176C26.4938 14.4136 26.5 14.2079 26.5 13.9996C26.5 8.20149 21.8003 3.5 16.0004 3.5Z" fill="white"/>
</svg>
